<?xml version="1.0" encoding="utf-8"?>
<!-- Generator: Adobe Illustrator 23.0.0, SVG Export Plug-In . SVG Version: 6.00 Build 0)  -->
<svg version="1.1" id="Layer_1" xmlns="http://www.w3.org/2000/svg" xmlns:xlink="http://www.w3.org/1999/xlink" x="0px" y="0px"
	 viewBox="0 0 941.5 824.8" style="enable-background:new 0 0 941.5 824.8;" xml:space="preserve">
<style type="text/css">
	.st0{opacity:0.1;fill:#1C3ED3;enable-background:new    ;}
	.st1{fill:#E6E8EC;}
	.st2{fill:none;stroke:#00FFFF;stroke-miterlimit:10;}
	.st3{opacity:0.1;enable-background:new    ;}
	.st4{fill:none;}
	.st5{fill:#66B6FF;}
	.st6{fill:#3C3C3C;}
</style>
<g>
	
		<ellipse transform="matrix(0.1368 -0.9906 0.9906 0.1368 -448.8426 1006.2115)" class="st0" cx="352.9" cy="760.6" rx="42.4" ry="356.1"/>
	<path class="st0" d="M20.4,568.9c6.4,15.5,14.8,30.3,26.6,41.6c14.3,13.8,32.1,21.4,51.2,25c5.6,1,11.3,1.8,17,2.2
		c15.1,1.2,30.5,0.4,45.3-1.2c36.3-4,72-11.6,106.7-22.8c5.7-1.8,11.4-3.8,17-5.8c8.5-3,16.9-6.3,25.3-9.8
		c34-14.2,69.1-32.3,105.3-26.7c17.5,2.7,34,11,51.6,13.5c12.3,1.6,24.9,0.7,36.8-2.6c5.8-1.6,11.5-3.5,17-5.9
		c12.4-5.4,24.3-12.1,35.3-20c26.5-18.5,50.3-41.5,78.2-57.5c30.8-17.7,64.8-26.1,99.5-32.4c5.7-1,11.3-2,17-2.9
		c16-2.6,32.1-5.1,48-8c15.3-2.8,30.8-6.3,44.1-14.8c9.5-6,17.5-14.4,24.8-23.3c13.5-16.4,25.1-34.2,34.5-53.2c0.5-1,1-2,1.5-3
		c14.7-30.1,24.6-63,30.6-97c0.2-1,0.3-2,0.5-3c5.7-33.3,7.8-67.8,7.2-102l-0.1-3c-0.4-16.9-1.4-33.7-3-50.3
		c-1.1-11.7-2.6-23.8-8.7-33.6s-15.9-16.1-25.7-21.3C860.6,28,819.1,21.6,772.5,32.8c-7.5,1.8-14.9,3.7-22.4,5.7
		c-5.7,1.5-11.3,3.1-17,4.7C694,54.1,655,65.7,614.6,69.1c-3.9,0.3-7.8,0.6-11.7,0.8c-7.7,0.4-15.5,0.4-23.2,0.2
		c-19.9-0.6-39.8-2.6-59.4-6.1c-5.7-1-11.3-2.1-17-3.3c-24.4-5.1-48.6-11.9-72.4-19.4c-4.9-1.5-9.7-3.1-14.6-4.7
		c-10.9-3.6-21.8-7.2-32.8-10.8C350.8,15.2,318,5.5,284.2,1.6c-2.9-0.3-5.8-0.6-8.7-0.9c-2.8-0.2-5.5-0.4-8.3-0.6
		c-52.5-2.8-105.5,9.8-152,35.7c-5.8,3.2-11.4,6.6-17,10.2C90.5,51,83,56.4,75.8,62.2C60.9,74.4,47,87.9,36.4,104.1
		c-10.3,15.8-17,33.5-20.9,52.2c-0.2,1-0.4,2-0.6,3c-5.6,30.1-3.9,62.4,2.4,92.5c0.7,3.2,1.4,6.3,2.1,9.5c0.2,1,0.5,2,0.7,3
		c6.8,28.5,15.6,56.9,13.3,86.1c-0.3,3.7-0.8,7.3-1.4,10.9c-0.2,1-0.3,2-0.5,3C27.2,388,17.1,410.6,11,434.2
		C-0.4,478.9,2.9,526.1,20.4,568.9z"/>
	<path class="st0" d="M98.2,261.3H19.6c0.2,1,0.5,2,0.7,3h77.9v97h-66c-0.2,1-0.3,2-0.5,3h66.5v271.2c5.6,1,11.3,1.8,17,2.2V364.3
		h152v249.4c5.7-1.8,11.4-3.8,17-5.8V364.3h219v217.9c5.8-1.6,11.5-3.5,17-5.9v-212h213v102.1c5.7-1,11.3-2,17-2.9v-99.2h151.5
		c0.5-1,1-2,1.5-3h-153v-97h183.6c0.2-1,0.3-2,0.5-3H750.2v-102h191.2l-0.1-3H750.2V38.5c-5.7,1.5-11.3,3.1-17,4.7v113.1h-208
		l-0.5-0.6l78.2-85.8c-7.7,0.4-15.5,0.4-23.2,0.2l-59.4,65.2V64c-5.7-1-11.3-2.1-17-3.3V132l-86.9-95.4
		c-10.9-3.6-21.8-7.2-32.8-10.8l118.2,129.7l-0.5,0.6h-217V1.8c-2.9-0.3-5.8-0.6-8.7-0.9c-2.8-0.2-5.5-0.4-8.3-0.6v155.9h-152V36.1
		c-5.8,3.2-11.4,6.6-17,10.2v109.9H15.6c-0.2,1-0.4,2-0.6,3h83.2V261.3z M267.2,159.3v102h-152v-102L267.2,159.3L267.2,159.3z
		 M284.2,159.3h219v102h-219V159.3z M733.2,261.3h-213V162l3-2.7h210V261.3z M520.2,361.3v-97h213v97H520.2z M284.2,361.3v-97h219
		v97H284.2z M115.2,264.3h152v97h-152L115.2,264.3L115.2,264.3z"/>
	<path class="st0" d="M537.9,187.4c1.3-1.1,2.8-2,4.4-2.5c3.6-1.1,7.4-1.5,11.1-1.2c2.8,0.1,5.5,0.5,8.2,1.1l125.6,35.6
		c2.4,0.7,4.7,1.5,7,2.3c8.1-3.2,31-12.4,33.5-15.6l9.8,2.9l-16.4,24.5l0,0c1.1,0.5,1.7,1.8,1.1,3c-0.3,0.6-0.7,1-1.3,1.2
		c-18.9,6.5-47.5-2.1-47.5-2.1l-109.8-31.4C563.8,205.2,530.6,194,537.9,187.4z"/>
	<ellipse transform="matrix(0.3127 -0.9499 0.9499 0.3127 254.352 804.7494)" class="st0" cx="683.3" cy="226.6" rx="1.6" ry="1"/>
	<ellipse transform="matrix(0.3127 -0.9499 0.9499 0.3127 252.8373 800.2086)" class="st0" cx="679.4" cy="225.4" rx="1.6" ry="1"/>
	<ellipse transform="matrix(0.3127 -0.9499 0.9499 0.3127 250.1264 791.6326)" class="st0" cx="672.1" cy="223" rx="1.6" ry="1"/>
	<ellipse transform="matrix(0.3127 -0.9499 0.9499 0.3127 241.755 767.7972)" class="st0" cx="651.4" cy="216.8" rx="1.6" ry="1"/>
	<ellipse transform="matrix(0.3127 -0.9499 0.9499 0.3127 240.2806 763.5815)" class="st0" cx="647.8" cy="215.8" rx="1.6" ry="1"/>
	<ellipse transform="matrix(0.3127 -0.9499 0.9499 0.3127 238.6934 759.473)" class="st0" cx="644.1" cy="214.8" rx="1.6" ry="1"/>
	<ellipse transform="matrix(0.3127 -0.9499 0.9499 0.3127 237.1426 754.9189)" class="st0" cx="640.2" cy="213.6" rx="1.6" ry="1"/>
	<ellipse transform="matrix(0.3127 -0.9499 0.9499 0.3127 235.761 750.618)" class="st0" cx="636.6" cy="212.4" rx="1.6" ry="1"/>
	<ellipse transform="matrix(0.3127 -0.9499 0.9499 0.3127 234.5345 746.6215)" class="st0" cx="633.2" cy="211.2" rx="1.6" ry="1"/>
	<ellipse transform="matrix(0.3127 -0.9499 0.9499 0.3127 233.0933 742.3983)" class="st0" cx="629.5" cy="210.1" rx="1.6" ry="1"/>
	<ellipse transform="matrix(0.3127 -0.9499 0.9499 0.3127 231.7796 737.9701)" class="st0" cx="625.8" cy="208.8" rx="1.6" ry="1"/>
	<ellipse transform="matrix(0.3127 -0.9499 0.9499 0.3127 230.5573 734.0874)" class="st0" cx="622.5" cy="207.7" rx="1.6" ry="1"/>
	<ellipse transform="matrix(0.3102 -0.9507 0.9507 0.3102 222.857 711.5598)" class="st0" cx="601.8" cy="202.2" rx="1.6" ry="1"/>
	<ellipse transform="matrix(0.3127 -0.9499 0.9499 0.3127 219.5379 704.1968)" class="st0" cx="596.4" cy="200.4" rx="1.6" ry="1"/>
	<ellipse transform="matrix(0.3127 -0.9499 0.9499 0.3127 218.1453 699.9985)" class="st0" cx="592.8" cy="199.3" rx="1.6" ry="1"/>
	<ellipse transform="matrix(0.3127 -0.9499 0.9499 0.3127 216.7392 695.7216)" class="st0" cx="589.1" cy="198.1" rx="1.6" ry="1"/>
	<ellipse transform="matrix(0.3127 -0.9499 0.9499 0.3127 215.5321 691.6857)" class="st0" cx="585.7" cy="196.9" rx="1.6" ry="1"/>
	<ellipse transform="matrix(0.3127 -0.9499 0.9499 0.3127 213.9687 687.0388)" class="st0" cx="581.7" cy="195.7" rx="1.6" ry="1"/>
	<ellipse transform="matrix(0.3127 -0.9499 0.9499 0.3127 220.7844 708.4208)" class="st0" cx="599.9" cy="201.7" rx="1.6" ry="1"/>
	<ellipse transform="matrix(0.3127 -0.9499 0.9499 0.3127 251.4295 795.4818)" class="st0" cx="675.4" cy="224" rx="1.6" ry="1"/>
	<rect x="613.4" y="206" transform="matrix(0.2397 -0.9708 0.9708 0.2397 267.019 756.523)" class="st0" width="6.2" height="3.5"/>
	
		<rect x="573" y="194.4" transform="matrix(0.2397 -0.9708 0.9708 0.2397 247.5168 708.4579)" class="st0" width="6.2" height="3.5"/>
	<polygon class="st0" points="557.5,185.2 562.1,186.4 559.8,189.8 553.1,188.2 	"/>
	<path class="st0" d="M542.3,185l9.9,2.6l3.8-2.3l-2.5-1.5C549.7,183.4,545.9,183.8,542.3,185z"/>
	<path class="st0" d="M737.6,209.9l-16.4,24.6l-26.8-11.9c0,0,30.4-11.6,33.4-15.6L737.6,209.9z"/>
	<polygon class="st0" points="618.5,213.6 661.8,225.3 664.4,230.4 	"/>
	<path class="st0" d="M188.2,89h1.3c-0.9-0.5-1.5-1.5-1.6-2.6l0,0c0-2.1,2.5-3.8,5.6-3.8H233c3.1,0,5.6,1.7,5.6,3.8l0,0
		c0,2.1-2.5,3.8-5.6,3.8h-1.3c0.9,0.6,1.5,1.5,1.6,2.6c0,1.8-1.8,3.2-4.3,3.6h11.4c3.1,0,5.6,1.7,5.6,3.8s-2.5,3.8-5.6,3.8H201
		c-3.1,0-5.6-1.7-5.6-3.8c0-1.8,1.8-3.2,4.3-3.6h-11.3c-3.1,0-5.6-1.7-5.6-3.8S185.1,89,188.2,89z"/>
	<path class="st0" d="M615.4,124.8h1.3c-0.9-0.6-1.5-1.5-1.6-2.6l0,0c0-2.1,2.5-3.8,5.6-3.8h39.4c3.1,0,5.6,1.7,5.6,3.8l0,0
		c0,2.1-2.5,3.8-5.6,3.8h-1.3c0.9,0.6,1.5,1.5,1.6,2.6c0,1.8-1.8,3.2-4.3,3.6h11.3c3.1,0,5.6,1.7,5.6,3.8s-2.5,3.8-5.6,3.8H628
		c-3.1,0-5.6-1.7-5.6-3.8c0-1.8,1.8-3.2,4.3-3.6h-11.3c-3.1,0-5.6-1.7-5.6-3.8S612.3,124.8,615.4,124.8z"/>
	<path class="st0" d="M127.8,277.9h1.3c-0.9-0.5-1.5-1.5-1.6-2.6l0,0c0-2.1,2.5-3.8,5.6-3.8h39.4c3.1,0,5.6,1.7,5.6,3.8l0,0
		c0,2.1-2.5,3.8-5.6,3.8h-1.3c0.9,0.5,1.5,1.5,1.6,2.6c0,1.8-1.8,3.2-4.3,3.6h11.3c3.1,0,5.6,1.7,5.6,3.8s-2.5,3.8-5.6,3.8h-39.4
		c-3.1,0-5.6-1.7-5.6-3.8c0-1.8,1.8-3.2,4.3-3.6h-11.4c-3.1,0-5.6-1.7-5.6-3.8S124.8,277.9,127.8,277.9z"/>
	<path class="st1" d="M431.4,182.2l-1.7,1.2c-0.1,0.1-0.3,0.1-0.4-0.1l0,0c-0.1-0.1-0.1-0.3,0.1-0.4l1.7-1.2
		c0.1-0.1,0.3-0.1,0.4,0.1l0,0C431.6,181.9,431.6,182.1,431.4,182.2z"/>
	<circle class="st1" cx="428.8" cy="183.7" r="0.3"/>
	<path class="st2" d="M384.4,223.4l0.1-0.1L384.4,223.4z"/>
	<path class="st3" d="M514.4,289.7c-0.2,0.5-5.2,10.5-1.8,11.6S514.4,289.7,514.4,289.7z"/>
	<path class="st3" d="M499.4,275.8c0,0-7.6,2.7-8.9,4S499.4,275.8,499.4,275.8z"/>
	<path class="st3" d="M525,268.4c-3.5-0.2-16.1-3.5-16.6-2.4S525,268.4,525,268.4z"/>
</g>
<path class="st4" d="M407.9,569.2c0,0,28.1-19.3,18.2-31c-0.5-0.5-1-2-1.4-3.8c-3.7,3-8.7,7.1-14.4,12L373,578.6
	c8.5,3.9,15,6.9,17.1,7.8C390.1,586.4,402.4,571.8,407.9,569.2z"/>
<g>
	<path class="st5" d="M153.7,271.8c0,0-11.6-7.3,0-20.7c0,0-18.9-7.7-7.7-21.1c0,0,6.9-5.7,10.3,2c0,0,4.5,4.1,9.9,2
		c0,0,5.8-8.1,10.1-9.8c0,0,7.1-19.1,14.4-17.9l10.5,1.4c0,0-12.7-22.8,0-28.6l101.5-44.7c0,0,27.9-8.9,49.4,7.7
		c0,0,22.3,14.6,41.6,40.6c0,0,16.7,35.4,29.2,72.7c0,0,5.4-16.5,13.7-18.9c0,0-3,12.6,0,22.3c0,0,14.8-20.3,20.8-17.5
		c0,0-12.2,22.3-6.2,39.8c0,0,8.6,6.1,10.3,10.2c0,0,23.8-6.8,45.2,4.3l26.9-3c0,0,2.3,6.5,2.3,10.3l37.2,15.4c0,0-1.1,7.6-4.6,11.4
		c0,0-40.9-18.4-43.8-20.6l-36.9-0.8c0,0,22.6,21.6,31.8,35.8c0,0,8.4-5.1,8.6,1.8c0,0,6-4.3,10.7-16.7c0,0,2.4-3.3,5.4-2.2
		c0,0,3.4,1.8,1.7,8.5c0,0-6.4,27.4-13.5,29.5c0,0,2.8,20.7,5.4,43.1c0,0,27.9,50.8,12,50.8c0,0,24.3,16.3,15.9,34.5
		c0,0-11.6,27.4-38.4,18.1c0,0-22.1-6.5-39.5-44.5c0,0-2.8,8.1-7.9,6.3c0,0-42.5-10.1-35.1-15.8c0,0-22.9-6.5-20-15.2
		c0,0,0.6-7-11.4-7.6c0,0-10.9-3.5-9.2-17.3c0,0-6.6-4.1-3.4-13.8c0,0-12.9-13,6.9-21.9c0,0,4.9-6.5-6-8.9c0,0-6.9-0.8-4.3-8.9
		c0,0-5.4-0.3-9.4-6.5c0,0-6.6,0.8-5.7-5.4c0,0-26.6-5.7-33.5-16l4.3-1.9c0,0-11.2-9.5-14-18.7l-5.2,1.9c0,0-17.7-9.5-6.9-20.3
		c0,0-0.6-15.2-9.7-12.2c0,0-21.2,7.3-32.3-0.3c0,0-36.6,2.4-56.1-14.1c0,0-10.9-7.9-8-1.4c0,0,8.3,11.1-35.5,1.1
		C185.3,270.3,159.9,276,153.7,271.8z"/>
	<path class="st6" d="M510.4,401.8c0,0,0-30.9,47.6-40.2c0,0,0.9-40.2,79.4-43.1c0,0,87.6,5.3,109.9,28c0,0,3.6,5.8,10.7,6.5
		c0,0,12.2,2.8,13.3,12.4c0,0,34.6,29.9,25.8,47.7c0,0,0,24.2-17.7,44.8c0,0-16.3,20.3-16,32c0,0-16.9,43.1-33.5,46.1
		c0,0-4.9,4.3,4.3,5.4c0,0,10.9,26.5-8,110c0,0-5,1.5-8.2,0.9c0,0-3.9,13.2-0.2,17.9c0,0,5.8,6.3,3,13.2c0,0-2.8,6.3-12,4.7
		c0,0-19.7,0.2-26.4,2.6c0,0-33.7,10.2-32.8,1.8c0,0-14-6.1-5.4-10.6c0,0,1.4-1.2,10.4,0.8c0,0,11.9-7.1,21.4-11.2
		c0,0,14.8-8.1,13.1-21.9c0,0-13.1-1.4-14.2-7.5l-9-39.8l-19.1,43.9c0,0-14.6-1-22.1-5.3c0,0-4.3,15-4.7,21.1c0,0,0.2,10.4-18,7.3
		c0,0-6.2-1.4-9.2-5.9c0,0-12.7-7.9-31.8-2.8c0,0-9.9,1.2-15-6.7c0,0-13.3-0.4-7.3-7.3c0,0-8.4-3.2-1.9-9.5c0,0,4.3-2.8,10.9,4.9
		c0,0,30.3,9.3,44.6-10.8c0,0-4.9-10,13.1-18.7c0,0-6-27.6,7.7-38c0,0-2.6-16.1,9.7-29.7c0,0-8.6-26.8,10.7-50.4
		c0,0,20-32.1,17.6-41.2c0,0-14.4,1.8-20.1-2.5c0,0-7.6-4.9-17-1.6c0,0-20.3,1.8-17.2-11.8c0,0-9.9,3.9-13.9-5c0,0-17.5,9.5-22.9,6
		c0,0-2.9,13.8-11.4,6.5C548.5,444.8,507.6,426.3,510.4,401.8z"/>
	<path class="st5" d="M621.5,414.4c0,0,1.1-24.4,6.9-18.1c0,0,2.9,2.2,1.7,13c0,0,4.6,1.6,7.7-3c0,0,19.5-26.7,20.3-11
		c0,0,8.3-6.6,7.2-0.1c0,0,6.9-5.1,1.7,7.2l-7.4,16.4c0,0,2.9-8.7,12.3-10.6c0,0,2.9-0.3-1.7,7.9c0,0-6.6,12.7-17.2,13.8
		c0,0-0.9,7.9-11.7,8.7C641.2,438.5,592,427.7,621.5,414.4z"/>
</g>
</svg>
